<svg xmlns="http://www.w3.org/2000/svg" xmlns:xlink="http://www.w3.org/1999/xlink" version="1.1" width="1080" height="1080" viewBox="0 0 1080 1080" xml:space="preserve">
<defs>
</defs>
<g transform="matrix(1 0 0 1 540 540)" id="0eca0f88-0931-4e7c-b412-42482d4a935a"  >
</g>
<g transform="matrix(1 0 0 1 540 540)" id="f1b21fa2-66fc-4851-9ab7-db31a656e396"  >
<rect style="stroke: none; stroke-width: 1; stroke-dasharray: none; stroke-linecap: butt; stroke-dashoffset: 0; stroke-linejoin: miter; stroke-miterlimit: 4; fill: rgb(31,41,55); fill-rule: nonzero; opacity: 1;" vector-effect="non-scaling-stroke"  x="-540" y="-540" rx="0" ry="0" width="1080" height="1080" />
</g>
<g transform="matrix(31.76 0 0 31.76 540 540)"  >
<g style=""   >
		<g transform="matrix(1 0 0 1 -1.61 -0.5)" clip-path="url(#CLIPPATH_10)"  >
<clipPath id="CLIPPATH_10" >
	<path transform="matrix(1 0 0 1 1.61 0.5) translate(-17, -17)" d="M 0 0 L 34 0 L 34 34 L 0 34 z" stroke-linecap="round" />
</clipPath>
<path style="stroke: none; stroke-width: 1; stroke-dasharray: none; stroke-linecap: butt; stroke-dashoffset: 0; stroke-linejoin: miter; stroke-miterlimit: 4; fill: rgb(255,255,255); fill-rule: nonzero; opacity: 1;" vector-effect="non-scaling-stroke"  transform=" translate(-15.39, -16.5)" d="M 15.949 15.137 L 11.729 9.379000000000001 C 11.515765279182718 9.087860853304269 11.1526835222166 8.947313076414158 10.799 9.019000000000002 L 4.068 10.379000000000001 C 3.802793198252889 10.433100620811421 3.5744783794928323 10.600409719998792 3.4429999999999996 10.837000000000002 L 0.116 16.852 C -0.058654437781761506 17.167264451464685 -0.03406006480191938 17.55530900292442 0.17899999999999983 17.846 L 4.409000000000001 23.621000000000002 C 4.622392722410247 23.911932943998234 4.985338493625472 24.052428081242837 5.339 23.981 L 12.05 22.626 C 12.315319210765466 22.571427739327365 12.543385414026538 22.403302012564396 12.674000000000001 22.166 L 16.013 16.134 C 16.18814723074719 15.817673767194805 16.163154632184302 15.428335942707285 15.949000000000002 15.137 M 11.309000000000001 20.928 C 11.149416572324345 21.045445733563678 10.949665747203706 21.09457969644092 10.753810188676049 21.06456351888879 C 10.55795463014839 21.03454734133666 10.382086419810426 20.927847242756947 10.265 20.768 L 7.845000000000001 17.471 C 7.55802217376122 17.081348712989282 7.071654265641675 16.892725261442923 6.597 16.987000000000002 L 2.4940000000000007 17.817 C 2.0891752783740287 17.89984271247462 1.693842712474619 17.638824721625973 1.6110000000000002 17.233999999999998 C 1.5281572875253813 16.829175278374027 1.7891752783740291 16.43384271247462 2.194000000000001 16.351 L 6.643000000000001 15.450999999999999 C 7.001017293304416 15.37863661146985 7.30941802248519 15.153182523905233 7.487000000000002 14.834 L 9.719000000000001 10.802 C 9.86607035090698 10.539504312585631 10.156107885987437 10.390683683712888 10.455112884998513 10.424294464623621 C 10.754117884009592 10.457905245534356 11.00387720775063 10.667403769486304 11.089000000000002 10.956 C 11.144116537008198 11.146199549179574 11.121456306277327 11.350501311959487 11.026000000000002 11.524 L 8.97 15.25 C 8.73542175382869 15.675208920507474 8.768573717311321 16.197839874233644 9.055000000000001 16.59 L 11.475000000000001 19.884999999999998 C 11.716903144931724 20.21850271293817 11.643578732743137 20.68482809045461 11.311000000000002 20.927999999999997 M 30.01 16.182 C 30.43360240312022 16.182 30.777 15.838602403120216 30.777 15.415 C 30.777 14.991397596879779 30.43360240312022 14.647999999999998 30.01 14.647999999999998 C 29.586397596879785 14.647999999999998 29.243000000000002 14.99139759687978 29.243000000000002 15.415 C 29.243000000000002 15.838602403120216 29.586397596879785 16.182 30.01 16.182" stroke-linecap="round" />
</g>
		<g transform="matrix(1 0 0 1 6.32 -0.05)" clip-path="url(#CLIPPATH_11)"  >
<clipPath id="CLIPPATH_11" >
	<path transform="matrix(1 0 0 1 -6.33 0.05) translate(-17, -17)" d="M 0 0 L 34 0 L 34 34 L 0 34 z" stroke-linecap="round" />
</clipPath>
<path style="stroke: none; stroke-width: 1; stroke-dasharray: none; stroke-linecap: butt; stroke-dashoffset: 0; stroke-linejoin: miter; stroke-miterlimit: 4; fill: rgb(255,255,255); fill-rule: nonzero; opacity: 1;" vector-effect="non-scaling-stroke"  transform=" translate(-23.33, -16.95)" d="M 33.276 17.716 L 19.403 17.716 C 18.979397608875956 17.71599998303485 18.636000030718126 17.372602391124044 18.636000030718126 16.949 C 18.636000030718126 16.52539760887596 18.979397608875956 16.182000016965155 19.403 16.182000000000002 L 27.692999999999998 16.182000000000002 C 28.10610245434139 16.16708616604053 28.433291697995003 15.827871576461487 28.433291697995003 15.414500000000002 C 28.433291697995003 15.001128423538518 28.10610245434139 14.661913833959476 27.692999999999998 14.647000000000002 L 22.214 14.647000000000002 C 21.79039759687978 14.647000000000002 21.447 14.30360240312022 21.447 13.880000000000003 C 21.447 13.456397596879782 21.79039759687978 13.113000000000001 22.214 13.113000000000001 L 30.514 13.113000000000001 C 30.92710245434139 13.098086166040527 31.254291697995004 12.758871576461486 31.254291697995004 12.345500000000001 C 31.254291697995004 11.932128423538515 30.92710245434139 11.592913833959475 30.514 11.578000000000001 L 13.34 11.578000000000001 L 15.948 15.138000000000002 C 16.16113525939656 15.42857945548972 16.186111208840945 15.816487170297808 16.012 16.132 L 12.673 22.164 C 12.64216319151625 22.219631992046384 12.605634048536551 22.271912233375126 12.564 22.32 L 29.13 22.32 C 29.404022714775913 22.320000010974532 29.65723014974507 22.17381063924839 29.794241510301102 21.93650000886756 C 29.931252870857136 21.69918937848673 29.931252870857136 21.406810621513273 29.794241510301102 21.16949999113244 C 29.65723014974507 20.93218936075161 29.404022714775913 20.78599998902547 29.13 20.786 L 24.953 20.786 C 24.672191315011407 20.796137761367152 24.408263977699143 20.652110786063673 24.264851246439637 20.410472460702714 C 24.121438515180127 20.168834135341754 24.121438515180127 19.86816586465825 24.264851246439633 19.62652753929729 C 24.408263977699143 19.38488921393633 24.672191315011403 19.24086223863285 24.953 19.251 L 33.275999999999996 19.251 C 33.561653183777466 19.26886786228695 33.83359534004201 19.12661628266641 33.98183103822618 18.881783319835094 C 34.13006673641036 18.636950357003776 34.13006673641036 18.330049642996226 33.98183103822618 18.08521668016491 C 33.83359534004201 17.84038371733359 33.561653183777466 17.698132137713053 33.275999999999996 17.716" stroke-linecap="round" />
</g>
</g>
</g>
<g transform="matrix(0 0 0 0 0 0)"  >
<g style=""   >
</g>
</g>
<g transform="matrix(0 0 0 0 0 0)"  >
<g style=""   >
</g>
</g>
<g transform="matrix(0 0 0 0 0 0)"  >
<g style=""   >
</g>
</g>
<g transform="matrix(0 0 0 0 0 0)"  >
<g style=""   >
</g>
</g>
</svg>
